<?xml version="1.0" encoding="utf-8"?>
<!-- Generator: Adobe Illustrator 16.0.0, SVG Export Plug-In . SVG Version: 6.00 Build 0)  -->
<!DOCTYPE svg PUBLIC "-//W3C//DTD SVG 1.1//EN" "http://www.w3.org/Graphics/SVG/1.1/DTD/svg11.dtd">
<svg version="1.1" id="Layer_1" xmlns="http://www.w3.org/2000/svg" xmlns:xlink="http://www.w3.org/1999/xlink" x="0px" y="0px"
	 width="384.153px" height="384.152px" viewBox="108.091 207.941 384.153 384.152"
	 enable-background="new 108.091 207.941 384.153 384.152" xml:space="preserve">
<g display="none">
	<g display="inline">
		<g>
			<path fill="#196835" d="M829.738,299.184c0,5.444,0,10.628,0,15.812c-11.405,0-22.811,0-34.216,0c0,60.137,0,119.756,0,179.894
				c1.036,0,2.073,0,3.369,0c30.069,0,60.138,0,90.466,0c1.814,0,3.369,0.519,4.665,2.073c4.407,4.666,9.072,9.072,13.738,13.998
				c-1.036,0-1.555,0.259-2.073,0.259c-35.771,0-71.543,0-107.314,0c-9.072,0-18.922-8.295-18.922-18.663
				c0.259-58.841,0.259-117.683,0-176.523c0-9.073,6.999-15.812,16.071-16.331C806.668,298.666,818.073,299.184,829.738,299.184z"/>
			<path fill="#196835" d="M931.09,314.996c-10.887,0-21.515,0-32.401,0c0-5.443,0-10.627,0-16.071c2.852,0,5.443,0,8.036,0
				c8.295,0,16.589,0,24.884,0c9.851,0,15.034,5.444,15.034,15.294c0,15.034,0,30.068,0,44.844c0,28.772,0,57.286,0,86.059
				c0,1.814-0.519,3.11-1.814,4.406c-4.666,4.406-9.072,9.072-14.257,13.997C931.09,414.016,931.09,364.765,931.09,314.996z"/>
			<path fill="#196835" d="M918.648,488.409c1.036-1.556,1.555-2.333,2.073-2.852c15.294-15.293,30.328-30.587,45.621-45.621
				c4.925-4.925,12.184-3.11,13.998,3.37c0.777,3.369-0.519,5.962-2.852,8.294c-10.628,10.628-20.996,20.997-31.624,31.624
				c-6.999,6.999-13.997,13.998-20.996,20.996c-4.147,4.147-8.554,4.147-12.701,0c-9.332-9.591-18.923-18.922-28.255-28.513
				c-3.11-3.11-3.369-7.518-0.777-10.887c2.333-3.111,6.739-4.147,10.109-2.074c1.037,0.519,1.814,1.296,2.592,2.074
				c6.74,6.739,13.738,13.737,20.479,20.478C917.093,486.076,917.611,486.854,918.648,488.409z"/>
			<path fill="#196835" d="M879.766,292.963c0.519,0,1.297,0,2.074,0c5.185,0,8.554,3.37,8.554,8.554c0,3.888,0,7.517,0,11.405
				c0,4.925-3.369,8.295-8.295,8.295c-11.924,0-23.588,0-35.512,0c-5.185,0-8.295-3.37-8.554-8.295c0-3.37,0-6.999,0-10.368
				c0-6.48,2.851-9.332,9.072-9.332c0.519,0,0.777,0,1.555,0c0.519-5.184,2.333-9.591,6.74-12.701
				c2.852-1.814,5.962-2.851,9.331-2.851C872.508,277.67,877.174,282.335,879.766,292.963z M856.696,292.704
				c4.925,0,9.85,0,14.516,0c-0.259-4.407-3.369-7.258-7.258-7.518C860.325,285.446,857.215,288.297,856.696,292.704z"/>
			<path fill="#196835" d="M864.213,349.471c15.294,0,30.328,0,45.622,0c2.592,0,4.406,1.296,4.666,3.37
				c0.518,2.592-1.297,4.666-4.407,4.666c-7.517,0-14.775,0-22.292,0c-23.07,0-46.14,0-69.21,0c-1.555,0-3.369-0.777-4.406-1.814
				c-0.777-0.777-0.777-2.851-0.26-3.888c0.778-1.037,2.593-2.074,3.889-2.074c9.591-0.259,19.44,0,29.031,0
				C852.809,349.471,858.511,349.471,864.213,349.471L864.213,349.471z"/>
			<path fill="#196835" d="M863.954,377.726c-15.034,0-30.328,0-45.362,0c-1.814,0-3.629-0.259-4.406-2.333
				c-0.26-1.296-0.519-3.11,0.259-3.888c0.778-1.037,2.593-1.814,4.147-1.814c19.7,0,39.4,0,59.101,0c10.628,0,21.256,0,31.883,0
				c3.37,0,5.185,1.555,4.925,3.888c0,2.592-1.814,3.888-5.184,3.888C894.282,377.726,879.248,377.726,863.954,377.726z"/>
			<path fill="#196835" d="M864.213,397.944c-15.034,0-30.327,0-45.361,0c-3.111,0-4.926-1.556-4.926-4.147
				c0-2.592,1.815-3.888,4.926-3.888c30.327,0,60.655,0,90.983,0c3.11,0,4.925,1.555,4.925,3.888c0,2.592-1.814,4.147-4.925,4.147
				C894.541,397.944,879.248,397.944,864.213,397.944z"/>
			<path fill="#196835" d="M864.473,412.201c15.034,0,30.068,0,45.103,0c1.296,0,3.111,0.518,3.889,1.555
				c0.777,0.777,0.777,2.593,0.519,3.889c-0.519,1.814-2.074,2.592-3.889,2.592c-8.035,0-16.071,0-23.848,0
				c-22.292,0-44.584,0-66.876,0c-0.26,0-0.519,0-0.778,0c-3.11,0-4.925-1.556-4.925-3.888c0-2.593,1.814-3.889,4.666-3.889
				c5.185,0,10.368,0,15.553,0C844.254,412.201,854.363,412.201,864.473,412.201L864.473,412.201z"/>
			<path fill="#196835" d="M864.473,432.419c15.034,0,30.068,0,45.103,0c2.852,0,4.407,1.037,4.926,3.37
				c0.518,2.592-1.556,4.666-4.666,4.666c-7.776,0-15.812,0-23.589,0c-22.292,0-44.584,0-66.876,0c-0.778,0-1.814,0-2.593,0
				c-2.073-0.519-3.11-1.814-3.11-4.147c0-2.074,1.556-3.629,3.889-3.629c5.443,0,10.887,0,16.33,0
				C844.254,432.419,854.363,432.419,864.473,432.419L864.473,432.419z"/>
		</g>
		<path fill="#196835" d="M864.473,588.725c-106.018,0-192.076-86.059-192.076-192.076c0-106.018,86.059-192.077,192.076-192.077
			s192.076,86.059,192.076,192.077C1056.549,502.666,970.231,588.725,864.473,588.725z M864.473,227.901
			c-93.058,0-168.747,75.69-168.747,168.748c0,93.057,75.689,168.747,168.747,168.747c93.057,0,168.747-75.69,168.747-168.747
			C1033.22,303.591,957.529,227.901,864.473,227.901z"/>
	</g>
	<g display="inline">
		<path fill="#F8AC43" d="M1557.347,427.235c-0.519-4.407-2.852-7.518-7.258-8.555c-4.147-1.036-7.776,0-9.331,4.147
			c-2.074,5.185,2.851,4.666,5.443,6.222c-5.443,2.073-7.777,0-8.036-5.185c-0.519-6.221-0.777-12.183-1.555-18.404
			c-6.999-70.505-88.133-110.165-148.27-72.061c-5.703,3.629-10.628,6.48-17.108,1.555c-3.888-2.852-9.072-2.592-13.997-2.333
			c-3.889,0.259-7.776,0.519-9.591,4.407c-1.556,3.629,1.814,5.703,3.629,8.295c7.776,9.591,8.035,13.479,2.073,24.625
			c-1.814,3.629-4.147,6.999-4.925,10.887c-1.814,7.776-6.221,9.85-13.738,9.591c-9.591-0.519-12.701,3.111-12.961,13.22
			c0,7.776,0,15.553,0,23.329c0,14.775,2.074,17.367,17.108,17.367c4.666,0,7.517,1.556,8.813,5.962
			c2.333,7.518,5.184,15.034,10.627,20.478c12.184,12.702,17.886,26.181,12.184,43.808c-2.074,6.221,2.073,10.627,9.072,11.664
			c2.852,0.26,5.703,0.777,8.813,1.296c11.405,1.556,14.774-0.519,16.071-11.924c0.777-6.48,3.11-6.48,8.295-4.925
			c17.107,5.185,34.216,5.703,51.323,0.777c7.258-2.073,11.405-2.592,11.405,6.999c0,5.443,3.37,10.368,9.592,9.332
			c8.294-1.296,18.403,2.073,23.588-7.776c0.777-1.556,0.519-3.629,0.259-5.443c-0.519-5.185-1.296-10.628-2.333-15.812
			c-1.037-5.702-0.259-10.109,4.147-14.516c8.554-8.554,15.294-18.663,19.441-30.068c2.073-5.444,4.665-8.036,10.887-8.036
			C1551.645,445.898,1558.643,437.345,1557.347,427.235z M1375.639,405.721c-4.406,0-7.776-3.629-7.776-7.776
			c0-4.407,3.63-7.776,7.776-7.776c4.147,0,7.776,3.629,7.776,7.776S1380.046,405.721,1375.639,405.721z M1476.991,345.842
			c-1.556,4.666-5.185,2.333-8.036,1.037c-19.699-8.036-39.4-8.036-59.1,0c-2.593,1.037-5.962,3.11-7.518-0.778
			c-1.555-3.629,1.814-5.184,4.406-6.221c10.369-4.406,21.256-6.999,32.402-6.221c11.405-0.519,22.032,1.814,32.142,5.961
			C1474.14,340.658,1478.287,341.695,1476.991,345.842z"/>
		<g>
			<path fill="#F8AC43" d="M1442.775,281.558c-0.519-0.518-1.556-0.777-3.111-1.296v9.332c2.074,0,3.37-0.777,4.147-2.333
				c0.519-0.778,0.519-1.556,0.519-2.333C1444.33,283.372,1443.812,282.335,1442.775,281.558z"/>
			<path fill="#F8AC43" d="M1434.48,269.634c-0.777,0.778-1.037,1.815-1.037,2.852c0,1.296,0.519,2.074,1.296,2.852
				c0.778,0.777,1.814,1.037,3.11,1.296v-8.295C1436.295,268.338,1435.258,268.856,1434.48,269.634z"/>
			<path fill="#F8AC43" d="M1439.146,250.711c-16.071,0-29.032,13.22-29.032,29.032c0,16.071,13.997,29.81,29.81,29.55
				c15.553-0.259,28.772-13.738,29.031-29.55C1468.955,263.413,1455.735,250.452,1439.146,250.711z M1444.59,290.63
				c-1.037,0.777-2.852,1.296-4.926,1.555v3.37h-1.555v-3.37c-3.37-0.259-5.703-1.555-6.999-3.629
				c-0.777-1.296-1.037-2.852-1.037-4.925h3.11c0,1.555,0.26,2.852,0.778,3.629c0.777,1.296,2.073,2.073,4.147,2.333v-9.591
				c-2.593-0.518-4.407-1.296-5.703-2.333c-1.296-1.037-1.814-2.592-1.814-4.666c0-1.814,0.777-3.37,2.073-4.925
				c1.297-1.555,3.111-2.074,5.444-2.074v-2.333h1.555v2.333c2.333,0.259,4.147,0.778,5.443,2.074
				c1.296,1.296,1.814,2.852,2.074,4.925h-3.37c0-0.778-0.259-1.555-0.777-2.333c-0.777-1.296-1.814-1.814-3.629-1.814v8.036
				c2.852,0.778,4.666,1.555,5.702,2.074c1.556,1.037,2.334,2.851,2.334,4.925C1447.441,287.001,1446.404,289.334,1444.59,290.63z"
				/>
		</g>
		<path fill="#F8AC43" d="M1436.035,584.836c-106.018,0-192.076-86.059-192.076-192.076s86.059-192.076,192.076-192.076
			c106.019,0,192.076,86.059,192.076,192.076S1542.054,584.836,1436.035,584.836z M1436.035,224.013
			c-93.057,0-168.747,75.69-168.747,168.747c0,93.058,75.69,168.747,168.747,168.747c93.058,0,168.747-75.689,168.747-168.747
			C1604.782,299.703,1529.093,224.013,1436.035,224.013z"/>
	</g>
</g>
<g display="none">
	<g display="inline">
		<g>
			<path fill="#BE2030" d="M212.554,433.975c13.738,0,26.439-0.259,39.141,0.259c6.221,0.26,10.887-1.296,13.22-7.517
				c0.259-0.777,1.037-1.556,1.814-2.852c6.739,11.924,13.22,23.329,19.441,34.994c1.555,2.851,3.37,6.739,6.999,5.443
				c2.592-0.778,5.184-3.37,6.221-5.962c8.813-17.627,17.108-35.513,25.662-53.398c0.778-1.555,1.556-2.851,2.593-4.925
				c3.629,9.591,6.998,18.663,10.109,27.736c1.555,4.665,4.146,6.479,9.072,6.221c15.293-0.259,30.327,0,47.177,0
				c-5.444,6.221-9.851,11.924-14.775,17.108c-21.515,22.811-45.621,42.251-71.024,60.396c-3.37,2.332-6.48,2.592-9.85,0.259
				c-30.068-21.773-59.1-44.584-82.688-73.616C214.628,437.085,214.109,436.048,212.554,433.975z"/>
			<path fill="#BE2030" d="M303.019,517.441c-2.851,0-5.184-1.037-6.999-2.333c-29.032-20.997-59.101-44.585-83.466-74.395
				c-0.519-0.777-1.037-1.555-1.814-2.592c-0.259-0.519-0.778-1.037-1.296-1.814l-4.407-6.221h7.518c4.147,0,8.035,0,11.923,0
				c9.332,0,18.404,0,27.477,0.259c6.221,0.259,8.036-1.556,9.332-4.925c0.519-1.037,1.037-1.814,1.556-2.593
				c0.259-0.259,0.518-0.518,0.518-0.777l3.629-5.443l23.07,41.474c0.518,0.778,1.296,2.593,1.814,2.852c0,0,0,0,0.259,0
				c1.296-0.519,3.11-2.073,3.888-3.888c6.48-13.221,12.701-26.44,18.922-39.4c2.333-4.666,4.407-9.332,6.74-13.998
				c0.519-1.036,1.036-2.073,1.555-3.11c0.26-0.519,0.519-1.037,1.037-1.814l4.147-8.036l3.11,8.295
				c1.037,2.851,2.074,5.702,3.11,8.294c2.593,6.74,4.926,12.961,6.999,19.441c1.037,2.852,2.073,3.629,5.185,3.629
				c10.887-0.259,21.773,0,33.179,0c4.407,0,9.072,0,13.738,0h8.554l-5.443,6.48c-1.814,2.073-3.369,4.147-4.925,5.962
				c-3.37,3.888-6.48,7.776-9.85,11.405c-18.923,19.959-40.956,38.882-71.543,60.915
				C307.685,516.663,305.352,517.441,303.019,517.441z M220.589,438.122c23.329,27.995,52.361,50.546,80.097,70.765
				c1.555,1.037,2.852,1.556,5.444-0.259c30.327-21.774,52.102-40.178,70.506-59.878c3.11-3.37,5.962-6.74,9.072-10.628
				c-1.814,0-3.629,0-5.443,0c-11.405,0-22.293,0-33.18,0h-0.259c-6.48,0-10.628-2.852-12.442-9.072
				c-2.074-6.222-4.406-12.442-6.999-18.923c-1.555,3.629-3.369,6.999-4.925,10.628c-6.221,12.96-12.442,26.439-18.922,39.659
				c-1.556,3.11-4.666,6.739-8.554,7.776c-6.739,2.074-9.85-3.629-11.405-6.48l-0.259-0.777l-16.071-28.772
				c-3.888,5.702-10.368,6.221-15.034,6.221c-8.813-0.259-17.626-0.259-26.958-0.259
				C223.182,437.863,221.886,437.863,220.589,438.122z"/>
		</g>
		<path fill="#BE2030" d="M411.888,362.432c0-0.778-0.259-1.296-0.259-1.814c-1.037-3.888-2.592-7.776-4.406-11.405
			c-0.778-1.556-2.074-3.888-2.074-3.888c-10.109-17.108-28.772-29.032-48.991-29.291c-20.736-0.259-37.586,8.294-49.769,25.662
			c-1.037,1.556-2.074,2.852-2.333,3.629c-6.739-6.48-12.701-13.998-20.478-19.182c-28.513-19.441-65.84-8.554-82.43,18.404l0,0l0,0
			c-4.147,6.74-6.999,14.257-8.035,22.811c0,0,0,0.259,0,0.519c-4.925,25.662,5.184,42.77,7.517,46.14
			c0,0.259,0.259,0.259,0.259,0.518l0,0c1.037,1.037,2.333,1.556,4.406,1.556c13.738-0.259,27.217-0.259,40.956,0
			c2.592,0,4.147-0.777,5.443-3.11c2.333-4.406,4.925-8.813,7.258-13.22c1.814-3.11,3.37-7.518,7.517-6.48
			c2.851,0.778,5.443,3.888,6.999,6.48c6.221,10.628,12.183,21.515,18.404,32.66c10.109-21.255,19.959-42.251,30.068-62.988
			c0.26-0.777,5.185-6.739,7.258-6.739c2.074,0,4.925,2.592,5.703,4.925c5.702,14.516,10.887,29.032,16.071,43.807
			c1.296,3.37,2.851,4.925,6.479,4.666c13.998-0.259,28.255-0.259,42.252,0c2.592,0,4.147-0.519,5.443-2.073v1.036
			C405.148,414.793,420.701,394.574,411.888,362.432z"/>
	</g>
	<path display="inline" fill="#BE2030" d="M300.168,587.946c-106.018,0-192.077-86.058-192.077-192.076
		s86.059-192.077,192.077-192.077c106.018,0,192.076,86.059,192.076,192.077S405.927,587.946,300.168,587.946z M300.168,227.382
		c-93.058,0-168.748,75.69-168.748,168.748c0,93.057,75.69,168.487,168.748,168.487c93.057,0,168.747-75.689,168.747-168.747
		S393.225,227.382,300.168,227.382z"/>
</g>
<g>
	<g>
		<path fill="#196835" d="M265.433,312.663c0,5.185,0,10.109,0,15.294c-10.887,0-22.033,0-32.92,0c0,58.063,0,115.867,0,173.932
			c1.037,0,2.074,0,3.111,0c29.032,0,58.323,0,87.354,0c1.814,0,3.11,0.518,4.406,1.814c4.407,4.406,8.813,8.812,13.479,13.479
			c-1.037,0-1.556,0.26-2.074,0.26c-34.475,0-69.209,0-103.685,0c-8.554,0-18.404-8.036-18.145-18.146
			c0.259-57.026,0.259-113.794,0-170.821c0-8.813,6.74-15.293,15.553-15.812C243.4,312.145,254.287,312.663,265.433,312.663z"/>
		<path fill="#196835" d="M363.415,327.957c-10.627,0-20.736,0-31.105,0c0-5.185,0-10.109,0-15.553c2.593,0,5.185,0,7.776,0
			c8.036,0,16.071,0,24.107,0c9.331,0,14.516,5.184,14.516,14.775c0,14.516,0,29.032,0,43.289c0,27.735,0,55.472,0,83.207
			c0,1.814-0.519,3.11-1.814,4.147c-4.406,4.406-8.813,8.813-13.738,13.479C363.415,423.606,363.415,375.911,363.415,327.957z"/>
		<path fill="#196835" d="M351.492,495.408c1.036-1.297,1.555-2.333,2.073-2.852c14.775-14.775,29.291-29.551,44.066-44.066
			c4.665-4.666,11.924-3.11,13.479,3.11c0.778,3.111-0.519,5.703-2.592,7.776c-10.109,10.109-20.478,20.479-30.587,30.588
			c-6.74,6.739-13.479,13.479-20.479,20.478c-4.146,4.147-8.294,4.147-12.441,0c-9.072-9.072-18.404-18.404-27.477-27.477
			c-3.11-3.11-3.37-7.258-0.778-10.368c2.333-3.111,6.48-3.889,9.851-2.074c0.777,0.519,1.814,1.296,2.333,2.074
			c6.739,6.479,13.22,13.22,19.959,19.959C349.937,493.075,350.455,494.111,351.492,495.408z"/>
		<path fill="#196835" d="M314.165,306.442c0.519,0,1.296,0,1.814,0c4.925,0,8.295,3.11,8.295,8.294c0,3.629,0,7.258,0,10.887
			c0,4.666-3.37,8.036-8.035,8.036c-11.406,0-22.811,0-34.476,0c-4.925,0-8.036-3.111-8.036-8.036c0-3.37,0-6.74,0-10.109
			c0-6.221,2.852-9.072,8.813-9.072c0.519,0,0.778,0,1.296,0c0.519-4.925,2.333-9.332,6.48-12.183
			c2.592-1.814,5.703-2.852,9.073-2.592C306.907,291.926,311.313,296.333,314.165,306.442z M291.873,306.442
			c4.925,0,9.591,0,14.257,0c-0.259-4.147-3.111-6.999-6.999-7.258C294.983,299.184,292.132,302.295,291.873,306.442z"/>
		<path fill="#196835" d="M298.872,361.395c14.775,0,29.55,0,44.066,0c2.593,0,4.147,1.037,4.666,3.111
			c0.519,2.333-1.296,4.406-4.147,4.406c-7.258,0-14.257,0-21.515,0c-22.292,0-44.584,0-66.876,0c-1.556,0-3.111-0.777-4.147-1.814
			c-0.778-0.777-0.778-2.851-0.259-3.629c0.778-1.037,2.333-2.074,3.629-2.074c9.332-0.259,18.663,0,27.995,0
			C287.985,361.395,293.428,361.395,298.872,361.395L298.872,361.395z"/>
		<path fill="#196835" d="M298.872,388.612c-14.516,0-29.291,0-43.807,0c-1.814,0-3.629-0.259-4.147-2.074
			c-0.259-1.037-0.519-3.11,0.259-3.888c0.777-1.037,2.592-1.555,3.888-1.555c18.922,0,38.104,0,57.027,0
			c10.368,0,20.478,0,30.846,0c3.11,0,4.925,1.296,4.925,3.888c0,2.333-1.814,3.888-4.925,3.888
			C327.903,388.612,313.388,388.612,298.872,388.612z"/>
		<path fill="#196835" d="M298.872,408.054c-14.516,0-29.291,0-43.807,0c-3.111,0-4.925-1.556-4.925-3.889s1.814-3.888,4.666-3.888
			c29.291,0,58.582,0,88.132,0c2.852,0,4.666,1.296,4.666,3.629s-1.814,3.888-4.925,3.888
			C328.163,408.054,313.388,408.054,298.872,408.054z"/>
		<path fill="#196835" d="M299.131,421.792c14.516,0,29.032,0,43.548,0c1.296,0,3.11,0.518,3.888,1.555
			c0.778,0.778,0.778,2.593,0.519,3.889c-0.519,1.814-2.073,2.333-3.888,2.333c-7.776,0-15.553,0-23.07,0
			c-21.515,0-43.029,0-64.544,0c-0.259,0-0.518,0-0.777,0c-2.852,0-4.666-1.297-4.666-3.889c0-2.333,1.555-3.888,4.666-3.888
			c4.925,0,10.109,0,15.034,0C279.69,421.792,289.281,421.792,299.131,421.792L299.131,421.792z"/>
		<path fill="#196835" d="M299.131,441.232c14.516,0,29.032,0,43.548,0c2.852,0,4.406,1.037,4.666,3.11
			c0.518,2.593-1.556,4.407-4.407,4.407c-7.517,0-15.293,0-22.811,0c-21.515,0-43.029,0-64.544,0c-0.777,0-1.555,0-2.333,0
			c-2.074-0.519-3.111-1.814-2.852-3.889c0-2.073,1.555-3.629,3.888-3.629c5.184,0,10.628,0,15.812,0
			C279.69,441.232,289.281,441.232,299.131,441.232L299.131,441.232z"/>
	</g>
	<path fill="#196835" d="M300.168,592.094c-106.018,0-192.077-86.059-192.077-192.076s86.059-192.076,192.077-192.076
		c106.018,0,192.076,86.059,192.076,192.076S405.927,592.094,300.168,592.094z M300.168,231.271
		c-93.058,0-168.748,75.69-168.748,168.747c0,93.058,75.69,168.747,168.748,168.747c93.057,0,168.747-75.689,168.747-168.747
		C468.915,306.96,393.225,231.271,300.168,231.271z"/>
</g>
<g display="none">
	<path display="inline" fill="#F8AC43" d="M300.168,587.946c-106.018,0-192.077-86.058-192.077-192.076
		s86.059-192.077,192.077-192.077c106.018,0,192.076,86.059,192.076,192.077S405.927,587.946,300.168,587.946z M300.168,227.382
		c-93.058,0-168.748,75.69-168.748,168.748c0,93.057,75.69,168.487,168.748,168.487c93.057,0,168.747-75.689,168.747-168.747
		S393.225,227.382,300.168,227.382z"/>
	<g display="inline">
		<path fill="#F8AC43" d="M410.333,428.531c-0.519-4.147-2.592-6.739-6.739-7.518c-3.629-0.777-6.999,0-8.555,3.629
			c-1.814,4.666,2.593,4.147,4.926,5.703c-4.926,1.814-6.999,0-7.259-4.666c-0.519-5.443-0.777-11.146-1.296-16.59
			c-6.221-63.507-79.578-99.278-133.753-65.062c-5.184,3.37-9.591,5.703-15.553,1.296c-3.629-2.592-8.294-2.333-12.701-2.074
			c-3.37,0.259-6.999,0.518-8.554,4.147c-1.296,3.37,1.555,5.185,3.37,7.518c6.999,8.554,7.258,12.183,1.814,22.292
			c-1.814,3.111-3.629,6.48-4.407,9.85c-1.555,6.999-5.703,8.813-12.442,8.554c-8.813-0.259-11.405,2.852-11.665,11.924
			c0,6.998,0,13.997,0,20.996c0,13.479,1.814,15.553,15.293,15.812c4.147,0,6.74,1.297,8.036,5.443
			c2.074,6.74,4.666,13.738,9.591,18.664c11.146,11.405,16.331,23.588,11.146,39.4c-1.815,5.702,1.814,9.591,8.035,10.368
			c2.592,0.259,5.185,0.777,7.776,1.296c10.109,1.556,13.479-0.519,14.516-10.628c0.778-5.962,2.851-5.702,7.517-4.406
			c15.293,4.666,30.847,5.185,46.399,0.519c6.479-1.814,10.108-2.333,10.108,6.221c0,4.925,2.852,9.332,8.813,8.554
			c7.518-1.036,16.59,1.814,21.256-7.258c0.777-1.296,0.519-3.369,0.259-4.925c-0.519-4.666-1.037-9.591-2.073-14.257
			c-1.037-5.184-0.26-9.331,3.629-13.22c7.776-7.776,13.738-16.849,17.626-27.217c1.814-4.926,4.147-7.259,9.851-7.259
			C405.148,445.121,411.37,437.604,410.333,428.531z M248.066,408.572c-4.147,0-7.258-3.37-7.258-7.259
			c0-4.147,3.37-7.258,7.258-7.258c4.147,0,7.258,3.37,7.258,7.258C255.324,405.202,252.213,408.572,248.066,408.572z
			 M337.754,354.915c-1.297,4.147-4.666,2.074-7.259,1.037c-17.885-7.258-35.512-7.258-53.397,0
			c-2.333,1.037-5.443,2.592-6.739-0.778c-1.296-3.37,1.555-4.666,4.147-5.703c9.332-4.147,19.182-6.221,29.291-5.703
			c10.368-0.518,19.959,1.556,29.031,5.444C335.421,350.249,339.05,351.286,337.754,354.915z"/>
		<g>
			<path fill="#F8AC43" d="M300.686,285.446c-0.777,1.037-1.037,1.815-1.037,2.852c0,1.296,0.518,2.074,1.296,2.851
				c0.778,0.778,1.814,1.296,3.37,1.556v-8.813C302.5,284.15,301.464,284.668,300.686,285.446z"/>
			<path fill="#F8AC43" d="M309.24,297.888c-0.777-0.519-1.814-1.037-3.37-1.296v9.85c2.074,0,3.628-0.778,4.407-2.333
				c0.518-0.778,0.518-1.555,0.518-2.592C311.055,299.962,310.536,298.925,309.24,297.888z"/>
			<path fill="#F8AC43" d="M303.538,269.116c-14.516,0-26.181,11.924-26.181,26.18c0,14.516,12.442,26.958,26.699,26.699
				c14.257-0.259,26.181-12.442,26.181-26.699C330.495,280.78,318.572,268.856,303.538,269.116z M311.055,307.738
				c-1.296,0.778-2.852,1.296-5.184,1.555v3.629h-1.815v-3.629c-3.629-0.259-5.961-1.555-7.258-3.888
				c-0.777-1.296-1.037-2.851-1.037-5.184h3.37c0,1.814,0.259,2.851,0.778,3.629c0.777,1.296,2.333,2.074,4.406,2.333v-10.109
				c-2.592-0.519-4.666-1.296-5.962-2.592c-1.296-1.296-1.814-2.851-1.814-4.925c0-1.814,0.778-3.629,2.074-5.185
				c1.296-1.555,3.37-2.333,5.703-2.333v-2.592h1.815v2.333c2.592,0.259,4.406,0.777,5.702,2.074
				c1.296,1.296,2.074,2.851,2.074,5.184h-3.37c0-1.037-0.259-1.814-0.777-2.333c-0.778-1.296-2.074-1.814-3.629-2.074v9.073
				c2.851,0.777,4.925,1.555,5.962,2.333c1.555,1.037,2.592,2.851,2.592,5.184C314.425,303.85,313.388,306.183,311.055,307.738z"/>
		</g>
	</g>
</g>
</svg>
